<?xml version="1.0" standalone="no"?>
<!DOCTYPE svg PUBLIC "-//W3C//DTD SVG 20010904//EN"
 "http://www.w3.org/TR/2001/REC-SVG-20010904/DTD/svg10.dtd">
<svg version="1.0" xmlns="http://www.w3.org/2000/svg"
 width="512.000000pt" height="512.000000pt" viewBox="0 0 512.000000 512.000000"
 preserveAspectRatio="xMidYMid meet">
<metadata>
Created by potrace 1.14, written by Peter Selinger 2001-2017
</metadata>
<g transform="translate(0.000000,512.000000) scale(0.100000,-0.100000)"
fill="#000000" stroke="none">
<path d="M2150 5073 c-166 -15 -337 -64 -473 -135 -274 -143 -502 -411 -611
-718 -44 -124 -29 -120 -412 -120 l-319 0 -154 -1738 c-84 -955 -155 -1747
-158 -1759 l-5 -23 347 0 346 0 -6 -43 c-3 -23 -14 -134 -25 -247 -11 -113
-23 -224 -26 -248 l-6 -42 2226 0 c1774 0 2226 3 2226 13 0 18 -298 3343 -305
3405 l-6 52 -300 0 -299 0 -4 23 c-5 21 -56 532 -56 556 0 8 -86 11 -319 11
-314 0 -320 0 -355 23 -19 12 -35 27 -36 33 -1 41 -59 206 -105 300 -152 313
-427 539 -759 624 -121 31 -289 45 -406 33z m190 -313 c285 -36 531 -199 679
-450 33 -56 91 -186 91 -204 0 -3 -387 -6 -861 -6 l-860 0 6 23 c4 12 24 59
45 103 138 297 399 492 715 534 87 11 92 11 185 0z m-357 -2065 c66 -33 139
-106 167 -168 26 -56 26 -157 1 -213 -10 -23 -44 -71 -76 -109 l-57 -67 26
-67 c115 -294 365 -528 641 -602 100 -26 267 -29 371 -6 208 46 410 180 537
358 51 72 109 184 127 246 13 41 12 43 -20 80 -77 88 -101 229 -61 361 28 94
97 171 179 202 119 45 271 13 365 -78 112 -107 134 -258 59 -396 -28 -52 -93
-113 -129 -122 -17 -5 -27 -21 -43 -72 -35 -108 -125 -280 -194 -372 -163
-218 -397 -381 -649 -454 -128 -37 -195 -46 -355 -46 -341 0 -614 111 -848
344 -141 141 -245 314 -299 501 -21 75 -28 86 -92 151 -96 96 -118 144 -118
259 0 74 4 98 23 132 36 68 82 114 147 145 55 27 67 29 150 25 74 -3 100 -8
148 -32z"/>
</g>
</svg>
