<?xml version="1.0" standalone="no"?>
<!DOCTYPE svg PUBLIC "-//W3C//DTD SVG 20010904//EN"
 "http://www.w3.org/TR/2001/REC-SVG-20010904/DTD/svg10.dtd">
<svg version="1.0" xmlns="http://www.w3.org/2000/svg"
 width="512.000000pt" height="512.000000pt" viewBox="0 0 512.000000 512.000000"
 preserveAspectRatio="xMidYMid meet">
<metadata>
Created by potrace 1.14, written by Peter Selinger 2001-2017
</metadata>
<g transform="translate(0.000000,512.000000) scale(0.100000,-0.100000)"
fill="#000000" stroke="none">
<path d="M2065 5063 c-457 -67 -838 -389 -999 -843 -44 -124 -29 -120 -414
-120 l-322 0 -1 -52 c0 -29 -2 -62 -4 -73 -2 -11 -7 -58 -10 -105 -4 -47 -8
-96 -10 -110 -2 -14 -6 -61 -10 -105 -3 -44 -8 -96 -10 -115 -3 -19 -7 -71
-10 -115 -3 -44 -7 -96 -10 -115 -2 -19 -7 -66 -10 -105 -10 -128 -14 -180
-19 -225 -3 -25 -8 -79 -12 -120 -3 -41 -7 -88 -9 -105 -2 -16 -6 -68 -10
-115 -3 -47 -8 -96 -10 -110 -2 -14 -7 -63 -10 -110 -4 -47 -8 -101 -10 -120
-2 -19 -6 -69 -10 -110 -4 -41 -8 -91 -10 -110 -2 -19 -6 -73 -10 -120 -4 -47
-9 -96 -10 -110 -2 -21 -8 -88 -20 -225 -2 -16 -6 -70 -10 -120 -4 -49 -9 -97
-10 -105 -2 -8 -6 -53 -9 -100 -4 -47 -9 -101 -11 -120 -2 -19 -6 -71 -9 -115
-4 -44 -9 -98 -11 -120 -5 -37 -9 -93 -20 -225 -3 -30 -7 -74 -10 -98 -4 -30
-2 -42 7 -43 7 0 162 -1 343 -2 323 -2 330 -2 328 -22 -1 -11 -5 -54 -8 -95
-4 -41 -9 -86 -10 -100 -5 -45 -16 -154 -19 -190 -2 -19 -7 -65 -11 -102 l-7
-68 2231 0 c1228 0 2230 3 2228 8 -3 4 -8 47 -12 97 -4 50 -8 101 -10 115 -2
14 -7 61 -10 105 -3 44 -8 96 -10 115 -2 19 -7 69 -10 110 -3 41 -8 95 -10
120 -3 25 -7 70 -10 100 -3 30 -7 82 -10 115 -4 33 -8 83 -10 110 -3 28 -7 76
-10 108 -3 31 -7 83 -10 115 -3 31 -7 82 -10 112 -3 30 -7 80 -10 110 -7 63
-12 124 -20 230 -4 41 -8 93 -10 115 -3 22 -7 65 -10 95 -3 30 -7 80 -10 110
-2 30 -7 82 -10 115 -3 33 -8 85 -10 115 -3 30 -7 80 -10 110 -2 30 -7 80 -9
110 -3 30 -8 82 -11 115 -3 33 -8 83 -10 110 -3 28 -7 75 -10 105 -3 30 -8 82
-10 115 -3 33 -7 83 -10 110 -2 28 -7 82 -10 120 -3 39 -8 86 -10 105 -2 19
-7 69 -10 110 -6 79 -13 129 -19 139 -2 3 -137 6 -300 5 -163 0 -296 2 -297 5
0 3 -2 13 -4 21 -1 8 -5 47 -9 85 -4 39 -9 93 -11 120 -3 28 -8 70 -10 95 -8
70 -14 129 -20 194 -3 33 -7 61 -9 63 -2 2 -144 4 -316 3 -304 0 -314 1 -349
22 -20 12 -37 22 -38 23 -1 0 -5 16 -8 35 -10 58 -62 205 -100 281 -165 335
-468 566 -832 635 -112 21 -302 25 -418 7z m379 -322 c102 -24 208 -71 297
-132 58 -39 167 -140 212 -198 22 -28 88 -137 104 -171 23 -51 41 -96 48 -117
l6 -23 -861 0 -861 0 6 23 c17 54 89 195 131 255 62 89 170 192 260 248 122
76 203 105 389 137 49 8 189 -3 269 -22z"/>
</g>
</svg>
