<svg width="28" height="21" viewBox="0 0 28 21" fill="none" xmlns="http://www.w3.org/2000/svg">
<path fill-rule="evenodd" clip-rule="evenodd" d="M19.8374 11.9126C21.5499 13.0751 22.7499 14.6501 22.7499 16.7501V20.5001H27.7499V16.7501C27.7499 14.0251 23.2874 12.4126 19.8374 11.9126Z" fill="white"/>
<path d="M10.25 10.5C13.0114 10.5 15.25 8.26142 15.25 5.5C15.25 2.73858 13.0114 0.5 10.25 0.5C7.48858 0.5 5.25 2.73858 5.25 5.5C5.25 8.26142 7.48858 10.5 10.25 10.5Z" fill="white"/>
<path fill-rule="evenodd" clip-rule="evenodd" d="M17.7499 10.5C20.5124 10.5 22.7499 8.2625 22.7499 5.5C22.7499 2.7375 20.5124 0.5 17.7499 0.5C17.1624 0.5 16.6124 0.625 16.0874 0.8C17.1249 2.0875 17.7499 3.725 17.7499 5.5C17.7499 7.275 17.1249 8.9125 16.0874 10.2C16.6124 10.375 17.1624 10.5 17.7499 10.5Z" fill="white"/>
<path fill-rule="evenodd" clip-rule="evenodd" d="M10.25 11.75C6.9125 11.75 0.25 13.425 0.25 16.75V20.5H20.25V16.75C20.25 13.425 13.5875 11.75 10.25 11.75Z" fill="white"/>
</svg>
